# xmcd
#
# Track frame offsets: 
#        150
#        13020
#        23235
#        32565
#        46332
#        60630
#        74807
#        87535
#        98232
#        110022
#        124235
#        137005
#        146547
#        160945
#        171102
#        184855
#        196895
#        208695
#
# Disc length: 2954 seconds
#
# Revision: 0
# Processed by: cddbd v1.5.1PL0 Copyright (c) Steve Scherf et al.
# Submitted via: ExactAudioCopy v0.95a4
#
DISCID=090b8812
DTITLE=Charley Pride - The Best Of...
DYEAR=2003
DGENRE=Country
TTITLE0=Crystal chandeliers
TTITLE1=Is anybody goin' to San Antone
TTITLE2=Kiss an angel good mornin'
TTITLE3=All I have to offer you (is me)
TTITLE4=(I'm so) Afraid of losing you again
TTITLE5=I can't believe that you've stopped loving me
TTITLE6=I'd rather love you
TTITLE7=I'm just me
TTITLE8=Wonder could I live there anymore
TTITLE9=A shoulder to cry on
TTITLE10=She's too good to be true
TTITLE11=Don't fight the feelings of love
TTITLE12=Amazing love
TTITLE13=Then who am I
TTITLE14=Hope you're feelin' me (like I'm feelin' you)
TTITLE15=My eyes can only see as far as you
TTITLE16=She's just an old love turned memory
TTITLE17=I'll be leaving alone
EXTD=
EXTT0=
EXTT1=
EXTT2=
EXTT3=
EXTT4=
EXTT5=
EXTT6=
EXTT7=
EXTT8=
EXTT9=
EXTT10=
EXTT11=
EXTT12=
EXTT13=
EXTT14=
EXTT15=
EXTT16=
EXTT17=
PLAYORDER=
